<?xml version="1.0" encoding="UTF-8" standalone="no"?>
<!DOCTYPE svg PUBLIC "-//W3C//DTD SVG 1.1//EN"
 "http://www.w3.org/Graphics/SVG/1.1/DTD/svg11.dtd">
<!-- Generated by graphviz version 2.38.0 (20140413.2041)
 -->
<!-- Title: %3 Pages: 1 -->
<svg width="5865pt" height="332pt"
 viewBox="0.00 0.00 5864.66 332.00" xmlns="http://www.w3.org/2000/svg" xmlns:xlink="http://www.w3.org/1999/xlink">
<g id="graph0" class="graph" transform="scale(1 1) rotate(0) translate(4 328)">
<title>%3</title>
<polygon fill="white" stroke="none" points="-4,4 -4,-328 5860.66,-328 5860.66,4 -4,4"/>
<!-- 1 -->
<g id="node1" class="node"><title>1</title>
<ellipse fill="none" stroke="black" stroke-width="3" cx="1253.78" cy="-306" rx="759.565" ry="18"/>
<text text-anchor="middle" x="1253.78" y="-302.3" font-family="Times New Roman,serif" font-size="14.00">transform_dict({1: {&#39;B&#39;, &#39;A&#39;}, 2: {&#39;F&#39;, &#39;E&#39;}, 3: {&#39;D&#39;, &#39;E&#39;}, 4: {&#39;B&#39;, &#39;A&#39;, &#39;C&#39;}, 5: {&#39;C&#39;, &#39;D&#39;}, 6: {&#39;D&#39;, &#39;E&#39;}, 7: {&#39;F&#39;, &#39;A&#39;, &#39;C&#39;, &#39;E&#39;}}) ↦ {&#39;B&#39;: {1, 4}, &#39;A&#39;: {1, 4, 7}, &#39;F&#39;: {2, 7}, &#39;E&#39;: {2, 3, 6, 7}, &#39;D&#39;: {3, 5, 6}, &#39;C&#39;: {4, 5, 7}}</text>
</g>
<!-- 3 -->
<g id="node2" class="node"><title>3</title>
<ellipse fill="none" stroke="black" cx="759.783" cy="-234" rx="759.565" ry="18"/>
<text text-anchor="middle" x="759.783" y="-230.3" font-family="Times New Roman,serif" font-size="14.00">transform_dict({1: {&#39;B&#39;, &#39;A&#39;}, 2: {&#39;F&#39;, &#39;E&#39;}, 3: {&#39;D&#39;, &#39;E&#39;}, 4: {&#39;B&#39;, &#39;A&#39;, &#39;C&#39;}, 5: {&#39;C&#39;, &#39;D&#39;}, 6: {&#39;D&#39;, &#39;E&#39;}, 7: {&#39;F&#39;, &#39;A&#39;, &#39;C&#39;, &#39;E&#39;}}) ↦ {&#39;B&#39;: {1, 4}, &#39;A&#39;: {1, 4, 7}, &#39;F&#39;: {2, 7}, &#39;E&#39;: {2, 3, 6, 7}, &#39;D&#39;: {3, 5, 6}, &#39;C&#39;: {4, 5, 7}}</text>
</g>
<!-- 2 -->
<g id="node3" class="node"><title>2</title>
<ellipse fill="none" stroke="black" stroke-width="3" cx="2647.78" cy="-306" rx="616.291" ry="18"/>
<text text-anchor="middle" x="2647.78" y="-302.3" font-family="Times New Roman,serif" font-size="14.00">algorithm_x_recursive({1: {&#39;B&#39;, &#39;A&#39;}, 2: {&#39;F&#39;, &#39;E&#39;}, 3: {&#39;D&#39;, &#39;E&#39;}, 4: {&#39;B&#39;, &#39;A&#39;, &#39;C&#39;}, 5: {&#39;C&#39;, &#39;D&#39;}, 6: {&#39;D&#39;, &#39;E&#39;}, 7: {&#39;F&#39;, &#39;A&#39;, &#39;C&#39;, &#39;E&#39;}}, {1, 2, 3, 4, 5, 6, 7}, []) ↦ [&#39;B&#39;, &#39;D&#39;, &#39;F&#39;]</text>
</g>
<!-- 2&#45;&gt;3 -->
<g id="edge1" class="edge"><title>2&#45;&gt;3</title>
<path fill="none" stroke="black" d="M2283.2,-291.483C1961.13,-279.541 1492.32,-262.16 1159.97,-249.838"/>
<polygon fill="black" stroke="black" points="1159.81,-246.329 1149.69,-249.456 1159.55,-253.324 1159.81,-246.329"/>
</g>
<!-- 4 -->
<g id="node4" class="node"><title>4</title>
<ellipse fill="none" stroke="black" cx="2117.78" cy="-234" rx="579.997" ry="18"/>
<text text-anchor="middle" x="2117.78" y="-230.3" font-family="Times New Roman,serif" font-size="14.00">smallest_amount_of_ones({1: {&#39;B&#39;, &#39;A&#39;}, 2: {&#39;F&#39;, &#39;E&#39;}, 3: {&#39;D&#39;, &#39;E&#39;}, 4: {&#39;B&#39;, &#39;A&#39;, &#39;C&#39;}, 5: {&#39;C&#39;, &#39;D&#39;}, 6: {&#39;D&#39;, &#39;E&#39;}, 7: {&#39;F&#39;, &#39;A&#39;, &#39;C&#39;, &#39;E&#39;}}, {1, 2, 3, 4, 5, 6, 7}) ↦ 2</text>
</g>
<!-- 2&#45;&gt;4 -->
<g id="edge2" class="edge"><title>2&#45;&gt;4</title>
<path fill="none" stroke="black" d="M2521.84,-288.367C2441.09,-277.701 2336.3,-263.86 2253.67,-252.947"/>
<polygon fill="black" stroke="black" points="2254.08,-249.471 2243.7,-251.631 2253.16,-256.411 2254.08,-249.471"/>
</g>
<!-- 5 -->
<g id="node5" class="node"><title>5</title>
<ellipse fill="none" stroke="black" cx="3176.78" cy="-234" rx="460.618" ry="18"/>
<text text-anchor="middle" x="3176.78" y="-230.3" font-family="Times New Roman,serif" font-size="14.00">transform_dict({&#39;F&#39;: {2, 7}, &#39;E&#39;: {2, 3, 6, 7}, &#39;D&#39;: {3, 5, 6}}) ↦ {2: {&#39;E&#39;, &#39;F&#39;}, 7: {&#39;E&#39;, &#39;F&#39;}, 3: {&#39;D&#39;, &#39;E&#39;}, 6: {&#39;D&#39;, &#39;E&#39;}, 5: {&#39;D&#39;}}</text>
</g>
<!-- 2&#45;&gt;5 -->
<g id="edge3" class="edge"><title>2&#45;&gt;5</title>
<path fill="none" stroke="black" d="M2773.48,-288.367C2854.67,-277.623 2960.21,-263.659 3042.95,-252.709"/>
<polygon fill="black" stroke="black" points="3043.47,-256.171 3052.93,-251.389 3042.55,-249.231 3043.47,-256.171"/>
</g>
<!-- 6 -->
<g id="node7" class="node"><title>6</title>
<ellipse fill="none" stroke="black" cx="4107.78" cy="-234" rx="452.22" ry="18"/>
<text text-anchor="middle" x="4107.78" y="-230.3" font-family="Times New Roman,serif" font-size="14.00">algorithm_x_recursive({2: {&#39;E&#39;, &#39;F&#39;}, 7: {&#39;E&#39;, &#39;F&#39;}, 3: {&#39;D&#39;, &#39;E&#39;}, 6: {&#39;D&#39;, &#39;E&#39;}, 5: {&#39;D&#39;}}, {2, 3, 5, 6, 7}, [&#39;B&#39;]) ↦ [&#39;B&#39;, &#39;D&#39;, &#39;F&#39;]</text>
</g>
<!-- 2&#45;&gt;6 -->
<g id="edge14" class="edge"><title>2&#45;&gt;6</title>
<path fill="none" stroke="black" d="M2953.4,-290.347C3208.93,-278.096 3570.75,-260.748 3820.9,-248.755"/>
<polygon fill="black" stroke="black" points="3821.41,-252.234 3831.23,-248.259 3821.08,-245.242 3821.41,-252.234"/>
</g>
<!-- 7 -->
<g id="node6" class="node"><title>7</title>
<ellipse fill="none" stroke="black" cx="2912.78" cy="-162" rx="460.618" ry="18"/>
<text text-anchor="middle" x="2912.78" y="-158.3" font-family="Times New Roman,serif" font-size="14.00">transform_dict({2: {&#39;E&#39;, &#39;F&#39;}, 7: {&#39;E&#39;, &#39;F&#39;}, 3: {&#39;D&#39;, &#39;E&#39;}, 6: {&#39;D&#39;, &#39;E&#39;}, 5: {&#39;D&#39;}}) ↦ {&#39;E&#39;: {2, 3, 6, 7}, &#39;F&#39;: {2, 7}, &#39;D&#39;: {3, 5, 6}}</text>
</g>
<!-- 6&#45;&gt;7 -->
<g id="edge4" class="edge"><title>6&#45;&gt;7</title>
<path fill="none" stroke="black" d="M3865.24,-218.792C3662.03,-206.889 3372.89,-189.952 3166.58,-177.867"/>
<polygon fill="black" stroke="black" points="3166.7,-174.368 3156.51,-177.277 3166.29,-181.356 3166.7,-174.368"/>
</g>
<!-- 8 -->
<g id="node8" class="node"><title>8</title>
<ellipse fill="none" stroke="black" cx="3797.78" cy="-162" rx="406.428" ry="18"/>
<text text-anchor="middle" x="3797.78" y="-158.3" font-family="Times New Roman,serif" font-size="14.00">smallest_amount_of_ones({2: {&#39;E&#39;, &#39;F&#39;}, 7: {&#39;E&#39;, &#39;F&#39;}, 3: {&#39;D&#39;, &#39;E&#39;}, 6: {&#39;D&#39;, &#39;E&#39;}, 5: {&#39;D&#39;}}, {2, 3, 5, 6, 7}) ↦ 1</text>
</g>
<!-- 6&#45;&gt;8 -->
<g id="edge5" class="edge"><title>6&#45;&gt;8</title>
<path fill="none" stroke="black" d="M4033.53,-216.233C3987.88,-205.924 3929.26,-192.688 3881.89,-181.993"/>
<polygon fill="black" stroke="black" points="3882.49,-178.54 3871.97,-179.751 3880.95,-185.368 3882.49,-178.54"/>
</g>
<!-- 9 -->
<g id="node9" class="node"><title>9</title>
<ellipse fill="none" stroke="black" cx="4417.78" cy="-162" rx="195.765" ry="18"/>
<text text-anchor="middle" x="4417.78" y="-158.3" font-family="Times New Roman,serif" font-size="14.00">transform_dict({&#39;F&#39;: {2, 7}}) ↦ {2: {&#39;F&#39;}, 7: {&#39;F&#39;}}</text>
</g>
<!-- 6&#45;&gt;9 -->
<g id="edge6" class="edge"><title>6&#45;&gt;9</title>
<path fill="none" stroke="black" d="M4182.04,-216.233C4228.94,-205.641 4289.54,-191.958 4337.55,-181.117"/>
<polygon fill="black" stroke="black" points="4338.61,-184.466 4347.59,-178.849 4337.07,-177.638 4338.61,-184.466"/>
</g>
<!-- 10 -->
<g id="node11" class="node"><title>10</title>
<ellipse fill="none" stroke="black" cx="4916.78" cy="-162" rx="285.149" ry="18"/>
<text text-anchor="middle" x="4916.78" y="-158.3" font-family="Times New Roman,serif" font-size="14.00">algorithm_x_recursive({2: {&#39;F&#39;}, 7: {&#39;F&#39;}}, {2, 7}, [&#39;B&#39;, &#39;D&#39;]) ↦ [&#39;B&#39;, &#39;D&#39;, &#39;F&#39;]</text>
</g>
<!-- 6&#45;&gt;10 -->
<g id="edge13" class="edge"><title>6&#45;&gt;10</title>
<path fill="none" stroke="black" d="M4287.33,-217.465C4424.25,-205.617 4611.6,-189.407 4746.24,-177.756"/>
<polygon fill="black" stroke="black" points="4746.59,-181.24 4756.25,-176.891 4745.98,-174.266 4746.59,-181.24"/>
</g>
<!-- 11 -->
<g id="node10" class="node"><title>11</title>
<ellipse fill="none" stroke="black" cx="4308.78" cy="-90" rx="195.765" ry="18"/>
<text text-anchor="middle" x="4308.78" y="-86.3" font-family="Times New Roman,serif" font-size="14.00">transform_dict({2: {&#39;F&#39;}, 7: {&#39;F&#39;}}) ↦ {&#39;F&#39;: {2, 7}}</text>
</g>
<!-- 10&#45;&gt;11 -->
<g id="edge7" class="edge"><title>10&#45;&gt;11</title>
<path fill="none" stroke="black" d="M4786.35,-145.983C4682.68,-134.048 4538.52,-117.45 4435.76,-105.619"/>
<polygon fill="black" stroke="black" points="4435.97,-102.12 4425.64,-104.454 4435.17,-109.075 4435.97,-102.12"/>
</g>
<!-- 12 -->
<g id="node12" class="node"><title>12</title>
<ellipse fill="none" stroke="black" cx="4745.78" cy="-90" rx="223.66" ry="18"/>
<text text-anchor="middle" x="4745.78" y="-86.3" font-family="Times New Roman,serif" font-size="14.00">smallest_amount_of_ones({2: {&#39;F&#39;}, 7: {&#39;F&#39;}}, {2, 7}) ↦ 1</text>
</g>
<!-- 10&#45;&gt;12 -->
<g id="edge8" class="edge"><title>10&#45;&gt;12</title>
<path fill="none" stroke="black" d="M4875.39,-144.055C4851.55,-134.296 4821.41,-121.958 4796.19,-111.637"/>
<polygon fill="black" stroke="black" points="4797.38,-108.338 4786.8,-107.789 4794.72,-114.817 4797.38,-108.338"/>
</g>
<!-- 13 -->
<g id="node13" class="node"><title>13</title>
<ellipse fill="none" stroke="black" cx="5087.78" cy="-90" rx="100.983" ry="18"/>
<text text-anchor="middle" x="5087.78" y="-86.3" font-family="Times New Roman,serif" font-size="14.00">transform_dict({}) ↦ {}</text>
</g>
<!-- 10&#45;&gt;13 -->
<g id="edge9" class="edge"><title>10&#45;&gt;13</title>
<path fill="none" stroke="black" d="M4958.18,-144.055C4982.81,-133.973 5014.16,-121.139 5039.86,-110.619"/>
<polygon fill="black" stroke="black" points="5041.47,-113.738 5049.4,-106.711 5038.82,-107.26 5041.47,-113.738"/>
</g>
<!-- 14 -->
<g id="node15" class="node"><title>14</title>
<ellipse fill="none" stroke="black" cx="5440.78" cy="-90" rx="234.758" ry="18"/>
<text text-anchor="middle" x="5440.78" y="-86.3" font-family="Times New Roman,serif" font-size="14.00">algorithm_x_recursive({}, set(), [&#39;B&#39;, &#39;D&#39;, &#39;F&#39;]) ↦ [&#39;B&#39;, &#39;D&#39;, &#39;F&#39;]</text>
</g>
<!-- 10&#45;&gt;14 -->
<g id="edge12" class="edge"><title>10&#45;&gt;14</title>
<path fill="none" stroke="black" d="M5032.75,-145.508C5117.71,-134.158 5232.78,-118.787 5319.06,-107.261"/>
<polygon fill="black" stroke="black" points="5319.72,-110.704 5329.17,-105.91 5318.79,-103.765 5319.72,-110.704"/>
</g>
<!-- 15 -->
<g id="node14" class="node"><title>15</title>
<ellipse fill="none" stroke="black" cx="5261.78" cy="-18" rx="100.983" ry="18"/>
<text text-anchor="middle" x="5261.78" y="-14.3" font-family="Times New Roman,serif" font-size="14.00">transform_dict({}) ↦ {}</text>
</g>
<!-- 14&#45;&gt;15 -->
<g id="edge10" class="edge"><title>14&#45;&gt;15</title>
<path fill="none" stroke="black" d="M5397.91,-72.2333C5371.72,-61.994 5338.15,-48.8662 5310.9,-38.2095"/>
<polygon fill="black" stroke="black" points="5312.14,-34.9344 5301.55,-34.5519 5309.59,-41.4536 5312.14,-34.9344"/>
</g>
<!-- 16 -->
<g id="node16" class="node"><title>16</title>
<ellipse fill="none" stroke="black" cx="5618.78" cy="-18" rx="237.758" ry="18"/>
<text text-anchor="middle" x="5618.78" y="-14.3" font-family="Times New Roman,serif" font-size="14.00">smallest_amount_of_ones({}, set()) ↦ 9223372036854775807</text>
</g>
<!-- 14&#45;&gt;16 -->
<g id="edge11" class="edge"><title>14&#45;&gt;16</title>
<path fill="none" stroke="black" d="M5483.42,-72.2333C5508.43,-62.3989 5540.21,-49.9001 5566.69,-39.4851"/>
<polygon fill="black" stroke="black" points="5568.16,-42.6681 5576.19,-35.7511 5565.6,-36.1537 5568.16,-42.6681"/>
</g>
</g>
</svg>
